<svg width="138" height="172" viewBox="0 0 138 172" fill="none" xmlns="http://www.w3.org/2000/svg">
<g id="24 / maps / pin">
<path id="icon" fill-rule="evenodd" clip-rule="evenodd" d="M69 171.178L74.0426 166.775C116.447 129.749 138 97.4185 138 69C138 28.7551 106.589 0 69 0C31.4107 0 0 28.7551 0 69C0 97.4185 21.5534 129.749 63.9574 166.775L69 171.178ZM69 150.753C33.0174 118.324 15.3333 90.8441 15.3333 69C15.3333 37.5406 39.5916 15.3334 69 15.3334C98.4085 15.3334 122.667 37.5406 122.667 69C122.667 90.8441 104.983 118.324 69 150.753Z" fill="#5C3D98"/>
<g id="S&#195;&#173;mbolo">
<g id="Group">
<path id="Vector" d="M53.4031 37.0823L45.7783 51.643C45.2859 52.5831 45.6101 53.7586 46.5075 54.2871L58.4467 61.3199C59.3564 61.8557 60.513 61.5262 61.0303 60.5836L75.6239 34.0006H58.4C56.3151 34.0006 54.3975 35.1832 53.4031 37.0823V37.0823Z" fill="#29A361"/>
<path id="Vector_2" d="M75.6236 34L61.0305 60.5833C60.5122 61.5257 59.3564 61.856 58.447 61.3205L55.3308 59.4856C56.0905 59.6124 56.8809 59.2505 57.2833 58.5164L70.7448 34H75.6236Z" fill="#248F55"/>
</g>
<g id="Group_2">
<path id="Vector_3" d="M91.5914 48.0983L86.3323 37.2479C85.3675 35.2572 83.4016 34.0006 81.252 34.0006H66.0465L77.7212 54.5272C77.683 54.545 77.6445 54.5629 77.6062 54.5807C76.8719 54.9233 76.9019 56.015 77.6537 56.3143L87.7348 60.3263C88.202 60.5122 88.7261 60.2704 88.9055 59.7864L92.7917 49.2988C93.0791 48.523 92.3245 47.7744 91.5914 48.0983V48.0983Z" fill="#34CB79"/>
<path id="Vector_4" d="M92.792 49.2983L88.9047 59.7858C88.7261 60.2712 88.2012 60.5132 87.7345 60.3263L84.6842 59.1119L88.3204 49.2983C88.5272 48.7418 88.197 48.1998 87.7232 48.0576C87.2722 47.9221 86.887 47.6159 86.6762 47.181L81.8609 37.2479C80.8967 35.2578 78.9314 34 76.7809 34H81.2525C83.4014 34 85.3667 35.2578 86.3325 37.2479L91.5912 48.0991C92.3253 47.7754 93.0786 48.5227 92.792 49.2983Z" fill="#2FB86E"/>
</g>
<g id="Group_3">
<path id="Vector_5" d="M81.4324 89.9321C81.2908 89.3298 80.5408 89.0717 80.083 89.5459L72.2038 97.7114C71.8894 98.0372 71.8894 98.5652 72.2038 98.8909L80.1135 107.088C80.568 107.559 81.3103 107.307 81.4597 106.715H93.0914C95.2328 106.715 97.1927 105.468 98.1616 103.489L104.799 89.932H81.4324V89.9321Z" fill="#29A361"/>
<path id="Vector_6" d="M91.2515 89.9323L95.0231 95.8465C95.8757 97.1835 95.9701 98.8922 95.2703 100.321L93.719 103.489C92.7517 105.468 90.791 106.715 88.6503 106.715H93.0914C95.2321 106.715 97.1928 105.468 98.1618 103.489L104.798 89.9325H91.2515V89.9323Z" fill="#248F55"/>
</g>
<g id="Group_4">
<path id="Vector_7" d="M65.5588 105.157V90.726C65.5588 89.6414 64.7103 88.762 63.6636 88.762H32.4463L40.48 104.047C41.4758 105.941 43.3909 107.12 45.4727 107.12H63.6636C64.7102 107.121 65.5588 106.241 65.5588 105.157Z" fill="#29A361"/>
<g id="Group_5">
<path id="Vector_8" d="M45.6856 88.7628L38.7528 100.762L32.4462 88.7628H45.6856Z" fill="#248F55"/>
<path id="Vector_9" d="M65.5584 90.7258V105.157C65.5584 106.241 64.7101 107.12 63.6639 107.12H58.6917C59.7379 107.12 60.5862 106.241 60.5862 105.157V90.7258C60.5862 89.6416 59.7379 88.7625 58.6917 88.7625H63.6639C64.7101 88.7623 65.5584 89.6416 65.5584 90.7258Z" fill="#248F55"/>
</g>
</g>
<g id="Group_6">
<path id="Vector_10" d="M50.3078 76.0109L48.9059 65.0778C48.8367 64.5377 48.358 64.1581 47.8369 64.2298L37.2464 65.6881C36.4489 65.7979 36.1517 66.8033 36.698 67.3626L30.0142 77.3462C28.7887 79.1766 28.6644 81.5666 29.6926 83.523L36.9659 97.3611L48.7756 76.9177C48.7798 76.921 48.7839 76.9244 48.7881 76.9276C49.4622 77.4578 50.4192 76.8803 50.3078 76.0109Z" fill="#34CB79"/>
<path id="Vector_11" d="M48.7875 76.9276C48.7842 76.9242 48.7795 76.9209 48.7762 76.9175L36.9661 97.3604L34.5372 92.7397L44.1497 76.0975L44.4162 75.6359C44.562 75.3836 44.8469 75.2746 45.1255 75.3306C45.1269 75.331 45.1283 75.3311 45.1297 75.3315C45.7223 75.4409 46.3303 74.9292 46.2392 74.227L45.0078 64.6186L47.8359 64.2299C48.3575 64.1582 48.8372 64.5386 48.9064 65.0773L50.3084 76.0119C50.4197 76.8808 49.4619 77.4579 48.7875 76.9276V76.9276Z" fill="#2FB86E"/>
</g>
<g id="Group_7">
<path id="Vector_12" d="M107.993 76.5949L98.8508 62.8661C98.29 62.0239 97.1991 61.7692 96.3439 62.2806L84.4292 69.4058C83.4836 69.9713 83.1934 71.2458 83.7955 72.1898L100.592 98.5252L108.385 82.6072C109.328 80.6804 109.178 78.3731 107.993 76.5949V76.5949Z" fill="#34CB79"/>
<path id="Vector_13" d="M108.385 82.6074L100.591 98.5246L97.9767 94.4243L103.762 82.6073C104.705 80.6805 104.555 78.3735 103.371 76.5953L94.5516 63.3537L96.3447 62.2811C97.1994 61.769 98.2908 62.0242 98.8509 62.8667L107.994 76.5954C109.178 78.3737 109.328 80.6808 108.385 82.6074V82.6074Z" fill="#2FB86E"/>
</g>
</g>
</g>
</svg>
